<?xml version="1.0" encoding="UTF-8" standalone="no"?>
<svg
   width="26.5"
   height="1.4"
   viewBox="0 0 26.5 1.4"
   fill="none"
   version="1.1"
   id="svg5"
   sodipodi:docname="title.svg"
   inkscape:version="1.4.2 (ebf0e940d0, 2025-05-08)"
   xmlns:inkscape="http://www.inkscape.org/namespaces/inkscape"
   xmlns:sodipodi="http://sodipodi.sourceforge.net/DTD/sodipodi-0.dtd"
   xmlns="http://www.w3.org/2000/svg"
   xmlns:svg="http://www.w3.org/2000/svg">
  <sodipodi:namedview
     id="namedview5"
     pagecolor="#ffffff"
     bordercolor="#000000"
     borderopacity="0.25"
     inkscape:showpageshadow="2"
     inkscape:pageopacity="0.0"
     inkscape:pagecheckerboard="0"
     inkscape:deskcolor="#d1d1d1"
     inkscape:zoom="26.540277"
     inkscape:cx="16.427862"
     inkscape:cy="1.8839291"
     inkscape:window-width="1276"
     inkscape:window-height="697"
     inkscape:window-x="0"
     inkscape:window-y="0"
     inkscape:window-maximized="1"
     inkscape:current-layer="svg5" />
  <defs
     id="defs5">
    <linearGradient
       id="paint0_linear_37_77"
       x1="7.61198"
       y1="-0.45038801"
       x2="62.361801"
       y2="10.0706"
       gradientUnits="userSpaceOnUse">
      <stop
         offset="0.103868"
         stop-color="#0486FF"
         id="stop1" />
      <stop
         offset="0.41706"
         stop-color="#5754FF"
         id="stop2" />
      <stop
         offset="0.666667"
         stop-color="#FF51A4"
         id="stop3" />
      <stop
         offset="0.909725"
         stop-color="#FF7C51"
         id="stop4" />
      <stop
         offset="1"
         stop-color="#FFAF51"
         id="stop5" />
    </linearGradient>
  </defs>
  <g
     id="text86-3-43-2"
     style="font-weight:300;font-size:11.2234px;line-height:0;font-family:'Noto Sans';-inkscape-font-specification:'Noto Sans Light';letter-spacing:0px;word-spacing:-0.712569px;fill:#00aa00;stroke:#00aa00;stroke-width:0"
     transform="matrix(0.73952449,0,0,0.75024639,-1.6473232,-0.08583371)"
     aria-label="[&gt;]The Universe is, and we are.&#10;">
    <path
       style="font-weight:normal;font-size:2.55923px;font-family:'Mx437 IBM VGA 8x16';-inkscape-font-specification:'Mx437 IBM VGA 8x16, Normal';fill:#e6e6e6"
       d="M 2.8116344,1.6072658 H 3.1315381 V 1.7672176 H 2.4917306 V 0.16769883 H 3.1315381 V 0.32765071 H 2.8116344 Z"
       id="path1" />
    <path
       style="font-weight:normal;font-size:2.55923px;font-family:'Mx437 IBM VGA 8x16';-inkscape-font-specification:'Mx437 IBM VGA 8x16, Normal'"
       d="M 3.7713456,1.6072658 V 1.4473139 H 3.9312975 V 1.287362 H 4.0912494 V 1.1274101 H 4.2512013 V 0.96745823 H 4.0912494 V 0.80750635 H 3.9312975 V 0.64755447 H 3.7713456 V 0.48760259 H 3.6113938 V 0.32765071 H 3.9312975 V 0.48760259 H 4.0912494 V 0.64755447 H 4.2512013 V 0.80750635 H 4.4111532 V 0.96745823 H 4.571105 V 1.1274101 H 4.4111532 V 1.287362 H 4.2512013 V 1.4473139 H 4.0912494 V 1.6072658 H 3.9312975 V 1.7672176 H 3.6113938 V 1.6072658 Z"
       id="path2" />
    <path
       style="font-weight:normal;font-size:2.55923px;font-family:'Mx437 IBM VGA 8x16';-inkscape-font-specification:'Mx437 IBM VGA 8x16, Normal';fill:#e6e6e6"
       d="M 5.3708645,1.6072658 V 0.32765071 H 5.0509607 V 0.16769883 H 5.6907682 V 1.7672176 H 5.0509607 V 1.6072658 Z M 6.170624,0.64755447 V 0.16769883 H 7.1303353 V 0.64755447 H 6.9703834 V 0.48760259 H 6.8104315 V 1.6072658 H 6.9703834 V 1.7672176 H 6.3305759 V 1.6072658 H 6.4905277 V 0.48760259 H 6.3305759 V 0.64755447 Z M 7.290287,1.7672176 V 1.6072658 H 7.4502389 V 0.32765071 H 7.290287 V 0.16769883 H 7.7701427 V 0.80750635 H 7.9300945 V 0.96745823 H 7.7701427 V 1.7672176 Z M 7.9300945,0.80750635 V 0.64755447 H 8.2499983 V 0.80750635 H 8.4099502 V 1.7672176 H 8.0900464 V 0.80750635 Z M 8.5699019,1.6072658 V 0.80750635 H 8.7298538 V 0.64755447 H 9.5296132 V 0.80750635 H 9.6895651 V 1.1274101 H 8.8898057 V 1.6072658 H 9.3696613 V 1.4473139 H 9.6895651 V 1.6072658 H 9.5296132 V 1.7672176 H 8.7298538 V 1.6072658 Z M 8.8898057,0.96745823 H 9.3696613 V 0.80750635 H 8.8898057 Z M 10.416564,1.6072658 V 0.16769883 h 0.319903 V 1.6072658 h 0.479856 V 0.16769883 h 0.319904 V 1.6072658 h -0.159952 v 0.1599518 h -0.79976 V 1.6072658 Z M 11.696178,0.80750635 V 0.64755447 h 0.319904 v 0.15995188 h 0.159952 V 1.7672176 H 11.85613 V 0.80750635 Z m 0.479856,0 V 0.64755447 h 0.479855 v 0.15995188 h 0.159952 V 1.7672176 H 12.495937 V 0.80750635 Z M 13.295697,1.7672176 V 1.6072658 h 0.159952 V 0.80750635 H 13.295697 V 0.64755447 h 0.479856 V 1.6072658 h 0.159952 v 0.1599518 z m 0.159952,-1.59951877 h 0.319904 V 0.48760259 H 13.455649 Z M 14.415361,1.4473139 V 0.64755447 h 0.319903 V 1.4473139 h 0.319904 V 0.64755447 h 0.319904 V 1.4473139 H 15.21512 V 1.6072658 H 15.055168 V 1.7672176 H 14.735264 V 1.6072658 H 14.575313 V 1.4473139 Z m 1.119662,0.1599519 V 0.80750635 h 0.159952 V 0.64755447 h 0.799759 v 0.15995188 h 0.159952 V 1.1274101 h -0.799759 v 0.4798557 h 0.479856 V 1.4473139 h 0.319903 V 1.6072658 H 16.494734 V 1.7672176 H 15.694975 V 1.6072658 Z m 0.319904,-0.63980757 h 0.479856 V 0.80750635 H 15.854927 Z M 16.814639,1.7672176 V 1.6072658 H 16.97459 V 0.80750635 H 16.814639 V 0.64755447 h 0.319903 v 0.15995188 h 0.159952 V 0.64755447 h 0.479856 v 0.15995188 h 0.159952 V 1.1274101 H 17.614398 V 0.80750635 H 17.454446 V 0.96745823 H 17.294494 V 1.6072658 h 0.159952 V 1.7672176 Z M 18.094253,1.6072658 V 1.4473139 h 0.319904 v 0.1599519 h 0.479855 V 1.4473139 H 18.734061 V 1.287362 H 18.414157 V 1.1274101 H 18.254205 V 0.96745823 H 18.094253 V 0.80750635 h 0.159952 V 0.64755447 h 0.799759 v 0.15995188 h 0.159952 V 0.96745823 H 18.894012 V 0.80750635 h -0.479855 v 0.15995188 h 0.159952 V 1.1274101 h 0.319903 V 1.287362 h 0.159952 v 0.1599519 h 0.159952 V 1.6072658 H 19.053964 V 1.7672176 H 18.254205 V 1.6072658 Z m 1.279615,0 V 0.80750635 H 19.53382 V 0.64755447 h 0.79976 v 0.15995188 h 0.159952 V 1.1274101 h -0.79976 v 0.4798557 h 0.479856 V 1.4473139 h 0.319904 V 1.6072658 H 20.33358 V 1.7672176 H 19.53382 V 1.6072658 Z m 0.319904,-0.63980757 h 0.479856 V 0.80750635 H 19.693772 Z M 21.540433,1.7672176 V 1.6072658 h 0.159952 V 0.80750635 H 21.540433 V 0.64755447 h 0.479855 V 1.6072658 h 0.159952 v 0.1599518 z m 0.159952,-1.59951877 h 0.319903 V 0.48760259 H 21.700385 Z M 22.500144,1.6072658 V 1.4473139 h 0.319904 v 0.1599519 h 0.479856 V 1.4473139 H 23.139952 V 1.287362 H 22.820048 V 1.1274101 H 22.660096 V 0.96745823 H 22.500144 V 0.80750635 h 0.159952 V 0.64755447 h 0.79976 v 0.15995188 h 0.159952 V 0.96745823 H 23.299904 V 0.80750635 H 22.820048 V 0.96745823 H 22.98 V 1.1274101 h 0.319904 V 1.287362 h 0.159952 v 0.1599519 h 0.159952 v 0.1599519 h -0.159952 v 0.1599518 h -0.79976 V 1.6072658 Z m 1.919423,0.1599518 V 1.9271695 H 24.099664 V 1.7672176 h 0.159952 V 1.287362 h 0.319903 V 1.7672176 Z M 25.62642,1.6072658 V 1.1274101 h 0.159952 V 0.96745823 h 0.479856 V 0.80750635 H 25.786372 V 0.64755447 h 0.639808 v 0.15995188 h 0.159952 V 1.6072658 h 0.159952 V 1.7672176 H 26.42618 V 1.6072658 H 26.266228 V 1.1274101 h -0.319904 v 0.4798557 h 0.319904 V 1.7672176 H 25.786372 V 1.6072658 Z M 26.906036,0.80750635 V 0.64755447 h 0.319904 v 0.15995188 h 0.159952 V 1.7672176 H 27.065988 V 0.80750635 Z m 0.479856,0 V 0.64755447 h 0.479855 v 0.15995188 h 0.159952 V 1.7672176 H 27.705795 V 0.80750635 Z M 28.185651,1.6072658 V 0.96745823 h 0.159952 V 0.80750635 h 0.159952 V 0.64755447 h 0.319904 V 0.32765071 H 28.665507 V 0.16769883 h 0.479856 V 1.6072658 h 0.159951 V 1.7672176 H 28.985411 V 1.6072658 H 28.825459 V 0.80750635 H 28.665507 V 0.96745823 H 28.505555 V 1.6072658 h 0.319904 V 1.7672176 H 28.345603 V 1.6072658 Z m 1.846661,0 V 0.64755447 h 0.319904 V 1.4473139 h 0.159952 V 0.96745823 h 0.159951 V 1.4473139 h 0.159952 V 0.64755447 h 0.319904 V 1.6072658 H 30.992023 V 1.7672176 H 30.672119 V 1.6072658 H 30.512168 V 1.7672176 H 30.192264 V 1.6072658 Z m 1.279615,0 V 0.80750635 h 0.159952 V 0.64755447 h 0.79976 V 0.80750635 H 32.43159 V 1.1274101 h -0.799759 v 0.4798557 h 0.479856 V 1.4473139 h 0.319903 v 0.1599519 h -0.159951 v 0.1599518 h -0.79976 V 1.6072658 Z m 0.319904,-0.63980757 h 0.479856 V 0.80750635 H 31.631831 Z M 33.158588,1.6072658 V 1.1274101 H 33.31854 V 0.96745823 h 0.479855 V 0.80750635 H 33.31854 V 0.64755447 h 0.639807 v 0.15995188 h 0.159952 V 1.6072658 h 0.159952 V 1.7672176 H 33.958347 V 1.6072658 H 33.798395 V 1.1274101 h -0.319903 v 0.4798557 h 0.319903 V 1.7672176 H 33.31854 V 1.6072658 Z m 1.279615,0.1599518 V 1.6072658 h 0.159952 V 0.80750635 H 34.438203 V 0.64755447 h 0.319904 v 0.15995188 h 0.159952 V 0.64755447 h 0.479856 v 0.15995188 h 0.159951 V 1.1274101 H 35.237963 V 0.80750635 H 35.078011 V 0.96745823 H 34.918059 V 1.6072658 h 0.159952 V 1.7672176 Z M 35.717817,1.6072658 V 0.80750635 h 0.159952 V 0.64755447 h 0.799759 V 0.80750635 H 36.83748 V 1.1274101 h -0.799759 v 0.4798557 h 0.479855 V 1.4473139 H 36.83748 V 1.6072658 H 36.677528 V 1.7672176 H 35.877769 V 1.6072658 Z m 0.319904,-0.63980757 h 0.479855 V 0.80750635 H 36.037721 Z M 37.797194,1.4473139 V 1.7672176 H 37.47729 V 1.4473139 Z"
       id="path3" />
  </g>
</svg>
